<?xml version="1.0" encoding="us-ascii" standalone="no"?><svg xmlns="http://www.w3.org/2000/svg" xmlns:xlink="http://www.w3.org/1999/xlink" contentStyleType="text/css" height="1137.5px" preserveAspectRatio="none" style="width:1310px;height:1137px;background:#FFFFFF;" version="1.1" viewBox="0 0 1310 1137" width="1310.3125px" zoomAndPan="magnify"><defs/><g><text fill="#000000" font-family="sans-serif" font-size="30.625" font-weight="bold" lengthAdjust="spacing" textLength="356.5625" x="473.5938" y="73.3582">CANARI CFA Workflow</text><ellipse cx="490.5469" cy="125.7556" fill="#222222" rx="21.875" ry="21.875" style="stroke:#222222;stroke-width:2.1875;"/><rect fill="none" height="299.1492" style="stroke:#000000;stroke-width:3.28125;" width="588.4375" x="196.3281" y="169.5056"/><path d="M353.8281,169.5056 L353.8281,190.2612 L331.9531,212.1362 L196.3281,212.1362 " fill="none" style="stroke:#000000;stroke-width:3.28125;"/><text fill="#000000" font-family="sans-serif" font-size="30.625" lengthAdjust="spacing" textLength="135.625" x="202.8906" y="201.3013">Selection</text><rect fill="#F1F1F1" height="74.6655" rx="27.3438" ry="27.3438" style="stroke:#181818;stroke-width:1.09375;" width="544.6875" x="218.2031" y="249.3237"/><text fill="#000000" font-family="sans-serif" font-size="26.25" lengthAdjust="spacing" textLength="500.9375" x="240.0781" y="296.5771">choose scenario (historical or SSP3-7.0)</text><rect fill="#F1F1F1" height="74.6655" rx="27.3438" ry="27.3438" style="stroke:#181818;stroke-width:1.09375;" width="494.375" x="243.3594" y="367.7393"/><text fill="#000000" font-family="sans-serif" font-size="26.25" lengthAdjust="spacing" textLength="450.625" x="265.2344" y="414.9927">choose simulation ID (e.g. u-cv575)</text><rect fill="none" height="531.3147" style="stroke:#000000;stroke-width:3.28125;" width="1262.1875" x="24.0625" y="490.5298"/><path d="M170.625,490.5298 L170.625,511.2854 L148.75,533.1604 L24.0625,533.1604 " fill="none" style="stroke:#000000;stroke-width:3.28125;"/><text fill="#000000" font-family="sans-serif" font-size="30.625" lengthAdjust="spacing" textLength="124.6875" x="30.625" y="522.3254">Lifecycle</text><polygon fill="#F1F1F1" points="366.9531,570.3479,614.1406,570.3479,640.3906,596.5979,614.1406,622.8479,366.9531,622.8479,340.7031,596.5979,366.9531,570.3479" style="stroke:#181818;stroke-width:1.09375;"/><text fill="#000000" font-family="sans-serif" font-size="24.0625" lengthAdjust="spacing" textLength="247.1875" x="366.9531" y="605.6918">Relevant seed exists?</text><text fill="#000000" font-family="sans-serif" font-size="24.0625" lengthAdjust="spacing" textLength="39.375" x="301.3281" y="591.5222">yes</text><text fill="#000000" font-family="sans-serif" font-size="24.0625" lengthAdjust="spacing" textLength="30.625" x="640.3906" y="591.5222">no</text><path d="M380.625,654.3723 L380.625,673.3057 L336.875,682.0557 L380.625,690.8057 L380.625,709.7391 A0,0 0 0 0 380.625,709.7391 L647.5,709.7391 A0,0 0 0 0 647.5,709.7391 L647.5,676.2473 L625.625,654.3723 L380.625,654.3723 A0,0 0 0 0 380.625,654.3723 " fill="#FAFAFA" style="stroke:#181818;stroke-width:1.09375;"/><path d="M625.625,654.3723 L625.625,676.2473 L647.5,676.2473 L625.625,654.3723 " fill="#FAFAFA" style="stroke:#181818;stroke-width:1.09375;"/><text fill="#000000" font-family="sans-serif" font-size="28.4375" lengthAdjust="spacing" textLength="220.9375" x="393.75" y="692.803">&#127793; Skip to Grow</text><rect fill="#F1F1F1" height="74.6655" rx="27.3438" ry="27.3438" style="stroke:#181818;stroke-width:1.09375;" width="286.5625" x="50.3125" y="644.7229"/><text fill="#000000" font-family="sans-serif" font-size="26.25" lengthAdjust="spacing" textLength="242.8125" x="72.1875" y="691.9763">found existing data</text><path d="M927.5,654.3723 L927.5,673.3057 L883.75,682.0557 L927.5,690.8057 L927.5,709.7391 A0,0 0 0 0 927.5,709.7391 L1260,709.7391 A0,0 0 0 0 1260,709.7391 L1260,676.2473 L1238.125,654.3723 L927.5,654.3723 A0,0 0 0 0 927.5,654.3723 " fill="#FAFAFA" style="stroke:#181818;stroke-width:1.09375;"/><path d="M1238.125,654.3723 L1238.125,676.2473 L1260,676.2473 L1238.125,654.3723 " fill="#FAFAFA" style="stroke:#181818;stroke-width:1.09375;"/><text fill="#000000" font-family="sans-serif" font-size="28.4375" lengthAdjust="spacing" textLength="286.5625" x="940.625" y="692.803">&#127381; New initialisation</text><rect fill="#F1F1F1" height="74.6655" rx="27.3438" ry="27.3438" style="stroke:#181818;stroke-width:1.09375;" width="192.5" x="691.25" y="644.7229"/><text fill="#000000" font-family="sans-serif" font-size="26.25" lengthAdjust="spacing" textLength="148.75" x="713.125" y="691.9763">create seed</text><path d="M586.7969,812.1628 L586.7969,831.0962 L543.0469,839.8462 L586.7969,848.5962 L586.7969,867.5296 A0,0 0 0 0 586.7969,867.5296 L853.6719,867.5296 A0,0 0 0 0 853.6719,867.5296 L853.6719,834.0378 L831.7969,812.1628 L586.7969,812.1628 A0,0 0 0 0 586.7969,812.1628 " fill="#FAFAFA" style="stroke:#181818;stroke-width:1.09375;"/><path d="M831.7969,812.1628 L831.7969,834.0378 L853.6719,834.0378 L831.7969,812.1628 " fill="#FAFAFA" style="stroke:#181818;stroke-width:1.09375;"/><text fill="#000000" font-family="sans-serif" font-size="28.4375" lengthAdjust="spacing" textLength="220.9375" x="599.9219" y="850.5936">&#127807; Processing...</text><rect fill="#F1F1F1" height="74.6655" rx="27.3438" ry="27.3438" style="stroke:#181818;stroke-width:1.09375;" width="105" x="438.0469" y="802.5134"/><text fill="#000000" font-family="sans-serif" font-size="26.25" lengthAdjust="spacing" textLength="61.25" x="459.9219" y="849.7668">grow</text><path d="M627.2656,930.5783 L627.2656,949.5117 L583.5156,958.2617 L627.2656,967.0117 L627.2656,985.9451 A0,0 0 0 0 627.2656,985.9451 L907.2656,985.9451 A0,0 0 0 0 907.2656,985.9451 L907.2656,952.4533 L885.3906,930.5783 L627.2656,930.5783 A0,0 0 0 0 627.2656,930.5783 " fill="#FAFAFA" style="stroke:#181818;stroke-width:1.09375;"/><path d="M885.3906,930.5783 L885.3906,952.4533 L907.2656,952.4533 L885.3906,930.5783 " fill="#FAFAFA" style="stroke:#181818;stroke-width:1.09375;"/><text fill="#000000" font-family="sans-serif" font-size="28.4375" lengthAdjust="spacing" textLength="234.0625" x="640.3906" y="969.0091">Finalising output</text><rect fill="#F1F1F1" height="74.6655" rx="27.3438" ry="27.3438" style="stroke:#181818;stroke-width:1.09375;" width="185.9375" x="397.5781" y="920.929"/><text fill="#000000" font-family="sans-serif" font-size="26.25" lengthAdjust="spacing" textLength="142.1875" x="419.4531" y="968.1824">arrange &#128144;</text><ellipse cx="490.5469" cy="1089.657" fill="none" rx="24.0625" ry="24.0625" style="stroke:#222222;stroke-width:2.1875;"/><ellipse cx="490.5469" cy="1089.657" fill="#222222" rx="13.125" ry="13.125" style="stroke:#222222;stroke-width:2.1875;"/><line style="stroke:#181818;stroke-width:2.1875;" x1="490.5469" x2="490.5469" y1="323.9893" y2="367.7393"/><polygon fill="#181818" points="481.7969,345.8643,490.5469,367.7393,499.2969,345.8643,490.5469,354.6143" style="stroke:#181818;stroke-width:2.1875;"/><line style="stroke:#181818;stroke-width:2.1875;" x1="490.5469" x2="490.5469" y1="147.6306" y2="249.3237"/><polygon fill="#181818" points="481.7969,227.4487,490.5469,249.3237,499.2969,227.4487,490.5469,236.1987" style="stroke:#181818;stroke-width:2.1875;"/><line style="stroke:#181818;stroke-width:2.1875;" x1="340.7031" x2="193.5938" y1="596.5979" y2="596.5979"/><line style="stroke:#181818;stroke-width:2.1875;" x1="193.5938" x2="193.5938" y1="596.5979" y2="644.7229"/><polygon fill="#181818" points="184.8438,622.8479,193.5938,644.7229,202.3438,622.8479,193.5938,631.5979" style="stroke:#181818;stroke-width:2.1875;"/><line style="stroke:#181818;stroke-width:2.1875;" x1="640.3906" x2="787.5" y1="596.5979" y2="596.5979"/><line style="stroke:#181818;stroke-width:2.1875;" x1="787.5" x2="787.5" y1="596.5979" y2="644.7229"/><polygon fill="#181818" points="778.75,622.8479,787.5,644.7229,796.25,622.8479,787.5,631.5979" style="stroke:#181818;stroke-width:2.1875;"/><line style="stroke:#181818;stroke-width:2.1875;" x1="193.5938" x2="193.5938" y1="719.3884" y2="758.7634"/><polygon fill="#181818" points="184.8438,736.8884,193.5938,758.7634,202.3438,736.8884,193.5938,745.6384" style="stroke:#181818;stroke-width:2.1875;"/><line style="stroke:#181818;stroke-width:2.1875;" x1="787.5" x2="787.5" y1="719.3884" y2="758.7634"/><polygon fill="#181818" points="778.75,736.8884,787.5,758.7634,796.25,736.8884,787.5,745.6384" style="stroke:#181818;stroke-width:2.1875;"/><line style="stroke:#181818;stroke-width:2.1875;" x1="193.5938" x2="787.5" y1="758.7634" y2="758.7634"/><line style="stroke:#181818;stroke-width:2.1875;" x1="490.5469" x2="490.5469" y1="758.7634" y2="802.5134"/><polygon fill="#181818" points="481.7969,780.6384,490.5469,802.5134,499.2969,780.6384,490.5469,789.3884" style="stroke:#181818;stroke-width:2.1875;"/><line style="stroke:#181818;stroke-width:2.1875;" x1="490.5469" x2="490.5469" y1="877.179" y2="920.929"/><polygon fill="#181818" points="481.7969,899.054,490.5469,920.929,499.2969,899.054,490.5469,907.804" style="stroke:#181818;stroke-width:2.1875;"/><line style="stroke:#181818;stroke-width:2.1875;" x1="490.5469" x2="490.5469" y1="442.4048" y2="570.3479"/><polygon fill="#181818" points="481.7969,548.4729,490.5469,570.3479,499.2969,548.4729,490.5469,557.2229" style="stroke:#181818;stroke-width:2.1875;"/><line style="stroke:#181818;stroke-width:2.1875;" x1="490.5469" x2="490.5469" y1="995.5945" y2="1065.5945"/><polygon fill="#181818" points="481.7969,1043.7195,490.5469,1065.5945,499.2969,1043.7195,490.5469,1052.4695" style="stroke:#181818;stroke-width:2.1875;"/><!--SRC=[TP71Qjn038RlynGY9-yXPY64XUHGbcrJ0YM4-D2p6CkssDcHcP6pNKglEUKG0Ztt6Ve4VQK-GcLlMfoM-cHRd_vV-fKz1e9bkN9vox77X3keUuQpvNBs9tTOovvZ2ms6JBFAJgBuBicEGDCmh_JejzXIfGSpIEGLOnlcm4PYpSeItyNwI7M18pcdhFQnMT-ixwvXSxM6ZvAsJP2zSrangNCce5Chd5GKJDjUJ-2p0tikV2UI2RAdY8a5YewpIcBR52H1LTsUdQxAvUBoDSwx8U2aUVqM2YhR4ePJVt- -EZVooolF3zoGF_X0lpsvWUBE1hd7g929Qg1FPfhVB40xYb0SA2ycSh9iP8Wlo9XfZOgNVwfHrFBYjjCB-FdjyJjKM-v11TudIs0ao4u0HPIPea-4rZPQ_q_fuIlSq1uusX8OE4-x7lNi3eqxfj6QoL7Xhpb-m6qIJpdRn6LPlk2OafsL37X- -hVjYkFeDEueW_Q3ZZdQBVfV]--></g></svg>